<svg version="1.1" id="Layer_1" xmlns="http://www.w3.org/2000/svg" xmlns:xlink="http://www.w3.org/1999/xlink" x="0px" y="0px"
	 width="100%" viewBox="0 0 96 104" enable-background="new 0 0 96 104" xml:space="preserve">
<path fill="#000000" opacity="1.000000" stroke="none" 
	d="
M55.000000,105.000000 
	C36.666668,105.000000 18.833334,105.000000 1.000000,105.000000 
	C1.000000,70.333336 1.000000,35.666668 1.000000,1.000000 
	C33.000000,1.000000 65.000000,1.000000 97.000000,1.000000 
	C97.000000,35.666668 97.000000,70.333336 97.000000,105.000000 
	C83.166664,105.000000 69.333336,105.000000 55.000000,105.000000 
M61.093422,84.643417 
	C62.446396,86.675537 63.799366,88.707664 65.334534,91.013435 
	C65.762177,90.105370 66.014351,88.846901 66.768738,88.086998 
	C71.188690,83.634727 71.188095,81.147003 65.891510,78.073593 
	C61.848732,75.727715 58.398857,72.613609 54.302696,70.235390 
	C45.411488,65.073174 37.582932,58.080673 29.137457,51.698616 
	C31.340565,50.034004 33.734814,47.978382 36.363304,46.286724 
	C43.320805,41.808968 50.042717,36.736904 57.523018,33.384270 
	C62.100498,31.332668 65.131149,28.190012 68.095551,24.800694 
	C68.934380,23.841627 67.638885,21.015829 67.322250,19.046165 
	C63.301739,21.740278 64.634682,17.426134 64.201012,16.909874 
	C60.209084,19.310232 56.370010,21.652267 52.487022,23.919069 
	C51.870510,24.278975 51.056301,24.300224 50.333492,24.478045 
	C50.333492,24.478045 43.612663,32.788280 43.612663,32.788280 
	C39.832676,34.614864 35.480091,35.788719 32.438457,38.456974 
	C29.565161,40.977558 26.523746,42.644310 23.253532,44.381855 
	C19.694862,46.272663 16.616640,49.067711 13.156785,51.594246 
	C15.899784,53.865040 18.432480,54.943485 19.080662,56.712456 
	C20.389175,60.283566 21.550339,62.604656 26.032995,63.243965 
	C30.981304,63.949684 34.418987,68.398880 39.716316,69.898872 
	C45.158688,71.439941 49.401146,77.068787 54.310387,80.718163 
	C56.201717,82.124115 58.483345,83.005020 61.093422,84.643417 
z"/>
<path fill="#FFFFFF" opacity="1.000000" stroke="none" 
	d="
M60.840286,84.384277 
	C58.483345,83.005020 56.201717,82.124115 54.310387,80.718163 
	C49.401146,77.068787 45.158688,71.439941 39.716316,69.898872 
	C34.418987,68.398880 30.981304,63.949684 26.032995,63.243965 
	C21.550339,62.604656 20.389175,60.283566 19.080662,56.712456 
	C18.432480,54.943485 15.899784,53.865040 13.156785,51.594246 
	C16.616640,49.067711 19.694862,46.272663 23.253532,44.381855 
	C26.523746,42.644310 29.565161,40.977558 32.438457,38.456974 
	C35.480091,35.788719 39.832676,34.614864 43.612663,32.788280 
	C43.612663,32.788280 50.333492,24.478045 50.333492,24.478045 
	C51.056301,24.300224 51.870510,24.278975 52.487022,23.919069 
	C56.370010,21.652267 60.209084,19.310232 64.201012,16.909874 
	C64.634682,17.426134 63.301739,21.740278 67.322250,19.046165 
	C67.638885,21.015829 68.934380,23.841627 68.095551,24.800694 
	C65.131149,28.190012 62.100498,31.332668 57.523018,33.384270 
	C50.042717,36.736904 43.320805,41.808968 36.363304,46.286724 
	C33.734814,47.978382 31.340565,50.034004 29.137457,51.698616 
	C37.582932,58.080673 45.411488,65.073174 54.302696,70.235390 
	C58.398857,72.613609 61.848732,75.727715 65.891510,78.073593 
	C71.188095,81.147003 71.188690,83.634727 66.768738,88.086998 
	C66.014351,88.846901 65.762177,90.105370 65.334534,91.013435 
	C63.799366,88.707664 62.446396,86.675537 60.840286,84.384277 
z"/>
</svg>